<?xml version="1.0" standalone="no"?>
<!DOCTYPE svg PUBLIC "-//W3C//DTD SVG 20010904//EN"
 "http://www.w3.org/TR/2001/REC-SVG-20010904/DTD/svg10.dtd">
<svg version="1.0" xmlns="http://www.w3.org/2000/svg"
 width="382.000000pt" height="403.000000pt" viewBox="0 0 382.000000 403.000000"
 preserveAspectRatio="xMidYMid meet">

<g transform="translate(0.000000,403.000000) scale(0.100000,-0.100000)"
fill="#000000" stroke="none">
<path d="M1565 3579 c-3 -8 -30 -104 -60 -214 -50 -185 -82 -301 -247 -900
-33 -121 -70 -257 -83 -303 -12 -45 -25 -85 -29 -89 -11 -11 -19 7 -93 199
l-68 178 -252 0 -253 0 0 -135 0 -135 158 0 159 0 26 -62 c14 -35 57 -139 95
-233 38 -93 113 -278 166 -410 54 -132 101 -246 106 -254 9 -17 0 -46 85 269
276 1020 318 1170 325 1170 4 0 43 -107 86 -237 l80 -238 206 -3 207 -2 31
-40 c43 -54 137 -100 205 -100 206 0 340 211 251 395 -87 178 -336 207 -458
53 l-30 -38 -108 0 -108 0 -20 58 c-11 31 -45 131 -75 222 -153 460 -286 852
-291 857 -3 3 -8 0 -11 -8z"/>
<path d="M434 886 c-37 -16 -64 -51 -64 -83 0 -49 22 -73 109 -116 88 -43 99
-56 87 -102 -12 -45 -105 -56 -165 -18 -17 11 -26 12 -35 3 -15 -16 23 -46 75
-60 88 -24 169 23 169 98 0 54 -22 78 -110 121 -81 40 -101 61 -84 89 21 33
61 45 107 32 60 -16 69 -17 74 -2 6 15 -71 52 -107 51 -14 0 -39 -6 -56 -13z"/>
<path d="M1974 886 c-56 -25 -80 -87 -53 -137 5 -11 47 -38 92 -60 86 -42 97
-51 97 -85 0 -55 -83 -79 -155 -44 -36 17 -49 20 -58 11 -17 -17 25 -47 84
-61 94 -23 169 23 169 102 0 32 -6 46 -31 69 -17 16 -35 29 -40 29 -24 0 -119
54 -124 71 -11 32 4 57 41 69 30 10 43 9 81 -5 38 -15 47 -15 54 -4 21 35
-102 70 -157 45z"/>
<path d="M750 773 c-44 -23 -72 -71 -72 -127 0 -107 91 -172 185 -132 56 23
47 37 -21 30 -53 -6 -60 -4 -90 21 -18 15 -32 35 -32 46 0 17 8 19 95 19 l95
0 0 45 c0 87 -83 138 -160 98z m109 -49 c37 -47 29 -54 -59 -54 -90 0 -100 11
-55 55 34 35 86 34 114 -1z"/>
<path d="M1000 645 c0 -138 1 -145 20 -145 18 0 20 8 22 108 l3 107 37 20 c35
18 40 19 65 5 28 -16 28 -17 31 -128 2 -104 4 -112 22 -112 19 0 20 7 20 110
0 128 -12 165 -59 175 -30 6 -93 -14 -105 -34 -10 -16 -26 -4 -26 20 0 10 -7
19 -15 19 -13 0 -15 -23 -15 -145z"/>
<path d="M1360 778 c-14 -8 -31 -25 -38 -40 -19 -41 1 -72 62 -98 51 -22 86
-47 86 -61 0 -34 -87 -52 -132 -28 -32 17 -46 -5 -15 -26 60 -39 160 -22 172
28 14 53 3 71 -62 102 -81 39 -88 47 -73 75 11 21 17 22 71 16 32 -3 59 -2 59
3 0 30 -90 49 -130 29z"/>
<path d="M1644 776 c-17 -8 -40 -26 -52 -41 -88 -111 29 -278 153 -219 50 23
75 67 75 129 0 62 -25 106 -73 128 -42 20 -62 21 -103 3z m107 -55 c24 -24 29
-38 29 -76 0 -117 -138 -146 -171 -36 -32 106 69 185 142 112z"/>
<path d="M2303 779 c-38 -11 -78 -60 -87 -108 -14 -76 35 -153 108 -166 39 -8
110 18 103 37 -2 7 -11 11 -18 9 -8 -2 -31 -6 -51 -9 -31 -3 -42 1 -68 26 -25
25 -30 39 -30 77 0 39 5 52 31 77 28 28 34 30 79 25 60 -7 74 8 26 28 -40 17
-48 17 -93 4z"/>
<path d="M2553 775 c-100 -43 -97 -219 4 -261 126 -53 238 111 151 221 -22 28
-74 55 -105 55 -10 -1 -33 -7 -50 -15z m104 -40 c13 -9 27 -34 33 -56 29 -107
-68 -183 -141 -110 -24 24 -29 38 -29 76 0 38 5 52 29 76 33 33 74 38 108 14z"/>
<path d="M2830 585 c0 -198 1 -205 20 -205 18 0 20 7 20 75 0 41 2 75 5 75 2
0 20 -7 39 -16 90 -44 183 61 157 177 -19 84 -86 117 -159 80 -51 -26 -52 -26
-52 -1 0 11 -7 20 -15 20 -13 0 -15 -29 -15 -205z m175 140 c20 -19 25 -34 25
-75 0 -44 -4 -56 -30 -82 -26 -26 -36 -30 -66 -25 -57 9 -64 21 -64 103 0 70
1 74 28 88 41 23 79 19 107 -9z"/>
<path d="M3224 776 c-123 -54 -101 -247 32 -272 37 -7 111 15 106 31 -1 6 -24
9 -51 7 -61 -4 -105 17 -119 58 l-11 30 100 0 99 0 0 35 c0 51 -26 94 -65 111
-42 17 -51 17 -91 0z m96 -46 c11 -11 20 -29 20 -40 0 -18 -7 -20 -75 -20 -67
0 -75 2 -75 19 0 26 46 61 81 61 16 0 38 -9 49 -20z"/>
</g>
</svg>
